<svg width="330" height="64" viewBox="0 0 330 64" fill="none" xmlns="http://www.w3.org/2000/svg">
<path d="M329.519 0.322479L324.204 16.8073L312.585 3.96186L329.519 0.322479ZM2.40416 19.1643C3.10091 19.5569 3.80894 19.9508 4.52809 20.3459L3.08369 22.9753C2.3552 22.5751 1.6377 22.1759 0.931395 21.7779L2.40416 19.1643ZM8.94757 22.7134C10.3782 23.4612 11.8466 24.2112 13.3515 24.9622L12.012 27.6465C10.4906 26.8874 9.00552 26.1288 7.55794 25.3722L8.94757 22.7134ZM17.8193 27.1422C19.3062 27.8517 20.8246 28.5608 22.3734 29.2682L21.1271 31.997C19.5631 31.2827 18.0295 30.5666 16.5273 29.8497L17.8193 27.1422ZM26.8784 31.2826C28.3839 31.9417 29.9153 32.5983 31.4717 33.2514L30.3109 36.0177C28.7404 35.3587 27.1949 34.6961 25.6753 34.0308L26.8784 31.2826ZM36.0771 35.1437C37.5987 35.7557 39.142 36.3638 40.7064 36.967L39.6271 39.7661C38.0493 39.1577 36.4925 38.5444 34.9575 37.9269L36.0771 35.1437ZM45.3873 38.7335C46.9241 39.301 48.4796 39.8633 50.053 40.4195L49.053 43.248C47.4665 42.687 45.8979 42.12 44.3481 41.5477L45.3873 38.7335ZM54.7922 42.058C56.344 42.5826 57.912 43.1008 59.4956 43.6121L58.5738 46.467C56.9772 45.9515 55.3963 45.429 53.8316 44.9001L54.7922 42.058ZM64.2807 45.1209C65.8475 45.6032 67.4284 46.0783 69.0229 46.5456L68.1792 49.4245C66.5716 48.9534 64.9778 48.4744 63.3982 47.9882L64.2807 45.1209ZM73.8452 47.9232C75.4266 48.3633 77.0205 48.7954 78.6264 49.219L77.8612 52.1198C76.2422 51.6927 74.6352 51.257 73.0409 50.8133L73.8452 47.9232ZM83.4794 50.4635C85.075 50.8611 86.6817 51.2499 88.2989 51.6294L87.6135 54.5501C85.9829 54.1674 84.3629 53.7754 82.7541 53.3745L83.4794 50.4635ZM93.1777 52.7388C94.7868 53.0929 96.4057 53.4377 98.0339 53.7724L97.4297 56.7109C95.7878 56.3734 94.1554 56.0258 92.5328 55.6687L93.1777 52.7388ZM102.934 54.744C104.556 55.0537 106.186 55.3532 107.825 55.642L107.304 58.5965C105.651 58.3051 104.007 58.0031 102.372 57.6908L102.934 54.744ZM112.744 56.4729C114.377 56.7367 116.017 56.9896 117.665 57.2312L117.229 60.1995C115.567 59.9557 113.912 59.7006 112.265 59.4346L112.744 56.4729ZM122.599 57.9178C124.241 58.1341 125.891 58.3389 127.546 58.5317L127.199 61.5116C125.529 61.317 123.865 61.1104 122.207 60.8922L122.599 57.9178ZM132.492 59.0701C134.143 59.2371 135.8 59.3921 137.462 59.5345L137.206 62.5235C135.529 62.3798 133.857 62.2234 132.19 62.0548L132.492 59.0701ZM142.417 59.9202C144.073 60.0362 145.735 60.1395 147.401 60.2296L147.239 63.2252C145.557 63.1342 143.879 63.03 142.207 62.9129L142.417 59.9202ZM152.363 60.4581C154.02 60.5211 155.681 60.5708 157.346 60.6068L157.281 63.6061C155.6 63.5697 153.922 63.5195 152.249 63.456L152.363 60.4581ZM162.32 60.6732C163.977 60.6815 165.636 60.676 167.299 60.6562L167.335 63.656C165.655 63.676 163.978 63.6815 162.305 63.6731L162.32 60.6732ZM172.279 60.5545C173.933 60.5064 175.589 60.444 177.248 60.3669L177.387 63.3637C175.711 63.4416 174.037 63.5047 172.366 63.5532L172.279 60.5545ZM182.228 60.091C183.877 59.985 185.528 59.864 187.18 59.7278L187.427 62.7176C185.756 62.8553 184.087 62.9776 182.421 63.0849L182.228 60.091ZM192.143 59.2731C193.788 59.107 195.435 58.9255 197.083 58.7282L197.44 61.7069C195.773 61.9065 194.108 62.09 192.444 62.2579L192.143 59.2731ZM202.018 58.0901C203.659 57.8622 205.3 57.6182 206.941 57.358L207.411 60.3209C205.751 60.5843 204.09 60.831 202.431 61.0616L202.018 58.0901ZM211.841 56.5323C213.474 56.2407 215.108 55.9325 216.741 55.6075L217.327 58.5498C215.674 58.8787 214.021 59.1905 212.368 59.4856L211.841 56.5323ZM221.596 54.5908C223.214 54.2351 224.831 53.8624 226.448 53.4725L227.151 56.3889C225.515 56.7836 223.878 57.1608 222.24 57.5208L221.596 54.5908ZM231.266 52.258C232.865 51.8374 234.463 51.3996 236.06 50.9441L236.883 53.829C235.266 54.2902 233.648 54.7335 232.029 55.1593L231.266 52.258ZM240.835 49.5275C242.411 49.0417 243.986 48.5384 245.559 48.0172L246.503 50.8649C244.91 51.3928 243.315 51.9025 241.718 52.3945L240.835 49.5275ZM250.272 46.3994C251.826 45.8471 253.378 45.2768 254.928 44.6884L255.993 47.493C254.423 48.0892 252.851 48.6668 251.276 49.2262L250.272 46.3994ZM259.557 42.8737C261.091 42.2529 262.623 41.6138 264.151 40.956L265.337 43.7118C263.788 44.3782 262.236 45.0257 260.682 45.6546L259.557 42.8737ZM268.683 38.9475C270.191 38.2596 271.695 37.5531 273.196 36.8278L274.501 39.529C272.98 40.2639 271.456 40.9798 269.929 41.6768L268.683 38.9475ZM277.635 34.6228C279.106 33.8719 280.573 33.1025 282.037 32.3142L283.459 34.9555C281.976 35.7543 280.489 36.5339 278.999 37.2947L277.635 34.6228ZM286.398 29.9027C287.828 29.0914 289.254 28.2616 290.676 27.4131L292.213 29.9893C290.773 30.8491 289.328 31.6898 287.879 32.5119L286.398 29.9027ZM294.93 24.8111C296.326 23.9362 297.717 23.0428 299.104 22.1305L300.753 24.6371C299.347 25.5613 297.938 26.4665 296.523 27.353L294.93 24.8111ZM303.221 19.3586C304.589 18.416 305.952 17.4546 307.311 16.4741L309.066 18.9067C307.69 19.8999 306.309 20.8739 304.923 21.8288L303.221 19.3586ZM311.281 13.5436C312.6 12.5487 313.913 11.5354 315.222 10.5035L317.08 12.8592C315.754 13.9044 314.424 14.9306 313.088 15.9383L311.281 13.5436ZM319.106 7.37374C320.372 6.33137 321.633 5.27102 322.889 4.19247L324.844 6.46855C323.572 7.56057 322.295 8.63424 321.013 9.68977L319.106 7.37374Z" fill="white"/>
</svg>
