<svg width="336" height="48" viewBox="0 0 336 48" fill="none" xmlns="http://www.w3.org/2000/svg">
<path d="M336 48L328.504 32.3855L318.73 46.6843L336 48ZM1.72337 44.0646C2.4333 43.6984 3.15532 43.3306 3.88923 42.9615L2.54113 40.2814C1.79831 40.6551 1.06727 41.0275 0.348193 41.3983L1.72337 44.0646ZM8.39254 40.7511C9.8501 40.0527 11.3478 39.3509 12.8843 38.647L11.6348 35.9196C10.0829 36.6305 8.56964 37.3397 7.09618 38.0457L8.39254 40.7511ZM17.4189 36.614C18.9252 35.9529 20.4644 35.2911 22.0355 34.6299L20.8717 31.8648C19.2868 32.5319 17.7337 33.1996 16.2133 33.8669L17.4189 36.614ZM26.6159 32.7404C28.1364 32.1257 29.6838 31.5122 31.2572 30.901L30.1708 28.1046C28.5848 28.7208 27.0247 29.3392 25.4914 29.9591L26.6159 32.7404ZM35.9326 29.1203C37.4652 28.5481 39.0203 27.9786 40.5971 27.4126L39.5836 24.589C37.9948 25.1593 36.4279 25.7331 34.8833 26.3098L35.9326 29.1203ZM45.3409 25.7436C46.8853 25.2111 48.4488 24.6824 50.0309 24.1582L49.0874 21.3105C47.4938 21.8384 45.9188 22.371 44.363 22.9075L45.3409 25.7436ZM54.809 22.6073C56.3707 22.1108 57.949 21.6191 59.5435 21.1328L58.6683 18.2633C57.0625 18.753 55.4729 19.2482 53.9 19.7483L54.809 22.6073ZM64.3503 19.6978C65.9275 19.237 67.5193 18.7819 69.1253 18.333L68.3176 15.4438C66.7004 15.8958 65.0974 16.3541 63.5091 16.8181L64.3503 19.6978ZM73.9618 17.0114C75.5515 16.587 77.1541 16.1689 78.7693 15.7576L78.029 12.8504C76.4026 13.2645 74.7887 13.6855 73.1879 14.1129L73.9618 17.0114ZM83.6358 14.5485C85.236 14.1609 86.8475 13.7802 88.4701 13.4069L87.7976 10.4833C86.1636 10.8591 84.5408 11.2425 82.9295 11.6329L83.6358 14.5485ZM93.3664 12.3107C94.9753 11.9604 96.5944 11.6176 98.2231 11.2828L97.6191 8.3442C95.9788 8.68138 94.3483 9.02657 92.7281 9.37936L93.3664 12.3107ZM103.138 10.3026C104.758 9.98964 106.386 9.68475 108.024 9.38837L107.489 6.43635C105.84 6.73485 104.2 7.04192 102.569 7.35714L103.138 10.3026ZM112.951 8.52683C114.582 8.25178 116.221 7.98539 117.867 7.72805L117.404 4.76404C115.746 5.02325 114.095 5.29157 112.452 5.56861L112.951 8.52683ZM122.805 6.9871C124.446 6.7511 126.094 6.52432 127.749 6.30712L127.358 3.33263C125.691 3.55145 124.031 3.77991 122.378 4.01765L122.805 6.9871ZM132.695 5.68917C134.345 5.4935 136.001 5.30756 137.663 5.13173L137.347 2.14838C135.673 2.32556 134.004 2.5129 132.342 2.71005L132.695 5.68917ZM142.616 4.63961C144.272 4.4857 145.934 4.34204 147.601 4.20897L147.363 1.21848C145.683 1.35259 144.008 1.49737 142.338 1.65248L142.616 4.63961ZM152.561 3.84569C154.219 3.73524 155.881 3.63548 157.547 3.54674L157.388 0.550983C155.708 0.640439 154.032 0.741004 152.362 0.852335L152.561 3.84569ZM162.525 3.31528C164.183 3.24946 165.844 3.19477 167.509 3.15154L167.431 0.152549C165.752 0.196145 164.077 0.251286 162.406 0.317638L162.525 3.31528ZM172.5 3.05668C174.157 3.03679 175.817 3.02846 177.479 3.03201L177.486 0.0320149C175.809 0.0284383 174.135 0.0368404 172.464 0.0568982L172.5 3.05668ZM182.477 3.07859C184.132 3.10599 185.79 3.14539 187.45 3.19709L187.544 0.198548C185.869 0.146383 184.196 0.10664 182.526 0.0790045L182.477 3.07859ZM192.436 3.38937C194.093 3.46563 195.752 3.55439 197.412 3.65595L197.596 0.661543C195.92 0.55905 194.246 0.469487 192.574 0.39254L192.436 3.38937ZM202.383 3.99811C204.04 4.12493 205.697 4.26473 207.356 4.41782L207.632 1.43051C205.957 1.27597 204.284 1.13486 202.612 1.00687L202.383 3.99811ZM212.308 4.91412C213.959 5.09288 215.611 5.28508 217.264 5.491L217.635 2.51401C215.966 2.30608 214.298 2.11202 212.631 1.93154L212.308 4.91412ZM222.198 6.14654C223.841 6.37846 225.484 6.6242 227.127 6.88407L227.595 3.9209C225.936 3.65842 224.277 3.41022 222.618 3.176L222.198 6.14654ZM232.044 7.70429C233.676 7.99064 235.307 8.2912 236.938 8.60626L237.507 5.66072C235.859 5.34239 234.211 5.03873 232.563 4.74945L232.044 7.70429ZM241.829 9.59518C243.448 9.93734 245.067 10.2941 246.685 10.6657L247.357 7.74184C245.722 7.36626 244.086 7.00574 242.449 6.65998L241.829 9.59518ZM251.531 11.8245C253.14 12.2245 254.748 12.6395 256.354 13.0699L257.131 10.172C255.507 9.737 253.881 9.31746 252.255 8.91312L251.531 11.8245ZM261.148 14.4011C262.744 14.8602 264.339 15.3347 265.931 15.8249L266.814 12.9577C265.203 12.462 263.591 11.9821 261.977 11.5179L261.148 14.4011ZM270.665 17.3307C272.24 17.8481 273.813 18.3812 275.383 18.9303L276.373 16.0983C274.785 15.543 273.194 15.0038 271.601 14.4806L270.665 17.3307ZM280.068 20.6184C281.619 21.1942 283.167 21.7859 284.712 22.3938L285.81 19.6021C284.247 18.9871 282.681 18.3884 281.112 17.806L280.068 20.6184ZM289.339 24.2664C290.864 24.9008 292.385 25.5513 293.903 26.2182L295.11 23.4716C293.573 22.7967 292.034 22.1385 290.492 21.4967L289.339 24.2664ZM298.443 28.2665C299.946 28.9628 301.446 29.6754 302.942 30.4048L304.257 27.7083C302.743 26.9701 301.225 26.2489 299.704 25.5443L298.443 28.2665ZM307.384 32.6259C308.861 33.3829 310.334 34.1566 311.804 34.9472L313.225 32.3055C311.738 31.5053 310.248 30.7222 308.753 29.9561L307.384 32.6259ZM316.151 37.3434C317.591 38.1564 319.028 38.9861 320.459 39.8328L321.986 37.2504C320.537 36.3934 319.083 35.5536 317.625 34.7308L316.151 37.3434ZM324.731 42.4171C326.131 43.2839 327.527 44.1673 328.918 45.0677L330.548 42.549C329.14 41.6378 327.727 40.7435 326.31 39.8662L324.731 42.4171Z" fill="white"/>
</svg>
