     <svg width="33" height="33" viewBox="0 0 33 33" fill="none" xmlns="http://www.w3.org/2000/svg">
                            <mask id="path-1-inside-1_2014_75" fill="white">
                            <path d="M23.0541 6.58564C20.8784 5.13596 18.2852 4.44468 15.6767 4.61901C13.0681 4.79334 10.59 5.82354 8.62663 7.54984C6.66325 9.27613 5.32436 11.602 4.81761 14.1668C4.31086 16.7316 4.66457 19.3919 5.82388 21.7352C6.98319 24.0785 8.88331 25.9738 11.2296 27.1271C13.5758 28.2804 16.237 28.6272 18.8005 28.1139C21.364 27.6006 23.6865 26.2557 25.4077 24.2879C27.129 22.3201 28.1528 19.8394 28.3204 17.2304L27.0085 17.1461C26.8594 19.4663 25.9489 21.6724 24.4182 23.4224C22.8875 25.1724 20.8221 26.3683 18.5424 26.8248C16.2627 27.2813 13.896 26.9728 11.8095 25.9472C9.72299 24.9216 8.0332 23.2361 7.00223 21.1522C5.97125 19.0684 5.65669 16.7025 6.10735 14.4217C6.558 12.1408 7.74868 10.0723 9.49472 8.53715C11.2408 7.00195 13.4446 6.08579 15.7644 5.93075C18.0842 5.77572 20.3903 6.39048 22.3251 7.67968L23.0541 6.58564Z"/>
                            </mask>
                            <path d="M23.0541 6.58564C20.8784 5.13596 18.2852 4.44468 15.6767 4.61901C13.0681 4.79334 10.59 5.82354 8.62663 7.54984C6.66325 9.27613 5.32436 11.602 4.81761 14.1668C4.31086 16.7316 4.66457 19.3919 5.82388 21.7352C6.98319 24.0785 8.88331 25.9738 11.2296 27.1271C13.5758 28.2804 16.237 28.6272 18.8005 28.1139C21.364 27.6006 23.6865 26.2557 25.4077 24.2879C27.129 22.3201 28.1528 19.8394 28.3204 17.2304L27.0085 17.1461C26.8594 19.4663 25.9489 21.6724 24.4182 23.4224C22.8875 25.1724 20.8221 26.3683 18.5424 26.8248C16.2627 27.2813 13.896 26.9728 11.8095 25.9472C9.72299 24.9216 8.0332 23.2361 7.00223 21.1522C5.97125 19.0684 5.65669 16.7025 6.10735 14.4217C6.558 12.1408 7.74868 10.0723 9.49472 8.53715C11.2408 7.00195 13.4446 6.08579 15.7644 5.93075C18.0842 5.77572 20.3903 6.39048 22.3251 7.67968L23.0541 6.58564Z" stroke="#F5A61A" stroke-width="35.7843" mask="url(#path-1-inside-1_2014_75)"/>
                            <path d="M11.4934 13.6901L17.6231 19.7687L29.8825 6.74316" stroke="#F5A61A" stroke-width="1.95104" stroke-linecap="round" stroke-linejoin="round"/>
                            </svg>