<svg width="72" height="72" viewBox="0 0 72 72" fill="none" xmlns="http://www.w3.org/2000/svg">
<path d="M27 12.0002C13.74 12.0002 3 22.7402 3 36.0002C3 49.2602 13.74 60.0002 27 60.0002C40.26 60.0002 51 49.2602 51 36.0002C51 22.7402 40.26 12.0002 27 12.0002ZM27 46.5002C25.35 46.5002 24 45.1502 24 43.5002V31.5002H20.25C19.02 31.5002 18 30.4802 18 29.2502C18 28.0202 19.02 27.0002 20.25 27.0002H33.75C34.98 27.0002 36 28.0202 36 29.2502C36 30.4802 34.98 31.5002 33.75 31.5002H30V43.5002C30 45.1502 28.65 46.5002 27 46.5002ZM60.75 11.2502L66 13.6202C66.2619 13.7395 66.4839 13.9316 66.6396 14.1736C66.7953 14.4157 66.8781 14.6974 66.8781 14.9852C66.8781 15.2729 66.7953 15.5546 66.6396 15.7967C66.4839 16.0387 66.2619 16.2308 66 16.3502L60.75 18.7202L58.38 24.0002C58.2607 24.262 58.0686 24.4841 57.8265 24.6398C57.5845 24.7955 57.3028 24.8782 57.015 24.8782C56.7272 24.8782 56.4455 24.7955 56.2035 24.6398C55.9614 24.4841 55.7693 24.262 55.65 24.0002L53.28 18.7502L48 16.3802C47.7381 16.2608 47.5161 16.0687 47.3604 15.8267C47.2047 15.5847 47.1219 15.3029 47.1219 15.0152C47.1219 14.7274 47.2047 14.4457 47.3604 14.2036C47.5161 13.9616 47.7381 13.7695 48 13.6502L53.25 11.2802L55.62 6.00016C55.7393 5.73828 55.9314 5.51624 56.1735 5.36055C56.4155 5.20486 56.6972 5.12207 56.985 5.12207C57.2728 5.12207 57.5545 5.20486 57.7965 5.36055C58.0386 5.51624 58.2307 5.73828 58.35 6.00016L60.75 11.2502ZM60.75 53.2502L66 55.6202C66.2619 55.7395 66.4839 55.9316 66.6396 56.1736C66.7953 56.4157 66.8781 56.6974 66.8781 56.9852C66.8781 57.2729 66.7953 57.5546 66.6396 57.7967C66.4839 58.0387 66.2619 58.2308 66 58.3502L60.75 60.7202L58.38 66.0002C58.2607 66.262 58.0686 66.4841 57.8265 66.6398C57.5845 66.7955 57.3028 66.8782 57.015 66.8782C56.7272 66.8782 56.4455 66.7955 56.2035 66.6398C55.9614 66.4841 55.7693 66.262 55.65 66.0002L53.28 60.7502L48 58.3802C47.7381 58.2608 47.5161 58.0687 47.3604 57.8267C47.2047 57.5846 47.1219 57.3029 47.1219 57.0152C47.1219 56.7274 47.2047 56.4457 47.3604 56.2036C47.5161 55.9616 47.7381 55.7695 48 55.6502L53.25 53.2802L55.62 48.0002C55.7393 47.7383 55.9314 47.5162 56.1735 47.3605C56.4155 47.2049 56.6972 47.1221 56.985 47.1221C57.2728 47.1221 57.5545 47.2049 57.7965 47.3605C58.0386 47.5162 58.2307 47.7383 58.35 48.0002L60.75 53.2502Z" fill="white"/>
</svg>
