<svg width="80" height="57" viewBox="0 0 80 57" fill="none" xmlns="http://www.w3.org/2000/svg">
<path d="M77.1429 19.95C77.9006 19.95 78.6273 19.6497 79.1632 19.1153C79.699 18.5808 80 17.8559 80 17.1V5.7C80 4.18827 79.398 2.73845 78.3263 1.66949C77.2547 0.600534 75.8012 0 74.2857 0H5.71429C4.19876 0 2.74531 0.600534 1.67368 1.66949C0.602039 2.73845 0 4.18827 0 5.7V17.1C0 17.8559 0.301019 18.5808 0.836838 19.1153C1.37266 19.6497 2.09938 19.95 2.85714 19.95C5.13043 19.95 7.3106 20.8508 8.91806 22.4542C10.5255 24.0577 11.4286 26.2324 11.4286 28.5C11.4286 30.7676 10.5255 32.9423 8.91806 34.5458C7.3106 36.1492 5.13043 37.05 2.85714 37.05C2.09938 37.05 1.37266 37.3503 0.836838 37.8847C0.301019 38.4192 0 39.1441 0 39.9V51.3C0 52.8117 0.602039 54.2615 1.67368 55.3305C2.74531 56.3995 4.19876 57 5.71429 57H74.2857C75.8012 57 77.2547 56.3995 78.3263 55.3305C79.398 54.2615 80 52.8117 80 51.3V39.9C80 39.1441 79.699 38.4192 79.1632 37.8847C78.6273 37.3503 77.9006 37.05 77.1429 37.05C74.8696 37.05 72.6894 36.1492 71.0819 34.5458C69.4745 32.9423 68.5714 30.7676 68.5714 28.5C68.5714 26.2324 69.4745 24.0577 71.0819 22.4542C72.6894 20.8508 74.8696 19.95 77.1429 19.95ZM5.71429 42.465C8.94368 41.8109 11.8471 40.0632 13.9325 37.5181C16.0179 34.9731 17.1572 31.7871 17.1572 28.5C17.1572 25.2129 16.0179 22.0269 13.9325 19.4819C11.8471 16.9368 8.94368 15.1891 5.71429 14.535V5.7H25.7143V51.3H5.71429V42.465Z" fill="white"/>
</svg>
